<svg width="48" height="48" viewBox="0 0 48 48" fill="none" xmlns="http://www.w3.org/2000/svg">
  <defs>
    <radialGradient id="bodyGradient" cx="50%" cy="30%" r="70%">
      <stop offset="0%" style="stop-color:#FFFFFF;stop-opacity:1" />
      <stop offset="70%" style="stop-color:#F0F0F0;stop-opacity:1" />
      <stop offset="100%" style="stop-color:#D0D0D0;stop-opacity:1" />
    </radialGradient>
    <radialGradient id="headGradient" cx="50%" cy="30%" r="70%">
      <stop offset="0%" style="stop-color:#FFFFFF;stop-opacity:1" />
      <stop offset="70%" style="stop-color:#F5F5F5;stop-opacity:1" />
      <stop offset="100%" style="stop-color:#E0E0E0;stop-opacity:1" />
    </radialGradient>
  </defs>
  
  <!-- BB-8 Body (Sphere) -->
  <circle cx="24" cy="32" r="14" fill="url(#bodyGradient)" stroke="#FF6B35" stroke-width="2"/>
  
  <!-- Body Orange Stripes -->
  <path d="M 12 28 Q 24 25 36 28" stroke="#FF6B35" stroke-width="3" fill="none"/>
  <path d="M 14 35 Q 24 32 34 35" stroke="#FF6B35" stroke-width="2" fill="none"/>
  <path d="M 16 40 Q 24 38 32 40" stroke="#FF6B35" stroke-width="2" fill="none"/>
  
  <!-- BB-8 Head -->
  <circle cx="24" cy="16" r="10" fill="url(#headGradient)" stroke="#FF6B35" stroke-width="1.5"/>
  
  <!-- Head Orange Stripe -->
  <path d="M 16 12 Q 24 10 32 12" stroke="#FF6B35" stroke-width="2" fill="none"/>
  
  <!-- Eye -->
  <circle cx="26" cy="14" r="3" fill="#000000"/>
  <circle cx="27" cy="13" r="1" fill="#00BFFF"/>
  
  <!-- Head Details -->
  <circle cx="20" cy="18" r="1" fill="#C0C0C0"/>
  <circle cx="28" cy="19" r="0.8" fill="#C0C0C0"/>
  
  <!-- Body Panel -->
  <rect x="20" y="28" width="8" height="6" fill="#E0E0E0" stroke="#FF6B35" stroke-width="1" rx="1"/>
  <circle cx="22" cy="30" r="0.5" fill="#00BFFF"/>
  <circle cx="26" cy="32" r="0.5" fill="#FF0000"/>
</svg>